<?xml version="1.0" encoding="UTF-8"?>
<svg id="Layer_1" xmlns="http://www.w3.org/2000/svg" version="1.1" viewBox="0 0 217.9 52.3">
  <!-- Generator: Adobe Illustrator 29.8.1, SVG Export Plug-In . SVG Version: 2.1.1 Build 2)  -->
  <defs>
    <style>
      .st0 {
        fill: #a2a2a2;
      }
    </style>
  </defs>
  <g>
    <path class="st0" d="M78.9,23.8c0-7-5.7-8.7-8.8-8.7h-4v17.6h4c3.1,0,8.8-2.4,8.8-8.8h0s0,0,0,0,0,0,0,0h0ZM70.1,28.7v-9.6s4.9-.5,4.9,4.8-4.9,4.8-4.9,4.8ZM80.7,15h-.9v17.7h4.1V15h-3.2ZM111.3,17.3c-.9-.9-1.9-1.5-2.9-1.9-1-.4-2.2-.7-3.4-.7h0c-1.2,0-2.3.2-3.4.7-1,.4-2,1.1-2.9,1.9-.9.9-1.6,1.9-2.1,3-.5,1.1-.7,2.3-.7,3.5s.2,2.3.6,3.4c.4,1.1,1,2,1.7,2.9.9,1,1.9,1.7,3,2.3,1.1.5,2.4.8,3.7.8h0c1.3,0,2.5-.3,3.6-.7,1.1-.5,2.2-1.3,3.1-2.2.8-.8,1.4-1.8,1.7-2.9.4-1,.6-2.2.6-3.4s-.2-2.4-.7-3.5c-.5-1.1-1.1-2.1-2-3ZM108.5,27.5c-.9,1-2,1.5-3.4,1.5h0c-.6,0-1.2-.1-1.8-.4-.6-.3-1.1-.6-1.6-1.1-.4-.4-.8-1-1-1.6-.2-.6-.4-1.3-.4-2s.1-1.3.4-1.9c.3-.6.6-1.2,1.1-1.7.4-.4.9-.8,1.5-1,.6-.2,1.1-.4,1.8-.4h0c.7,0,1.3.1,1.9.4.6.3,1.1.7,1.6,1.2.4.5.7,1,1,1.6.2.6.3,1.1.3,1.8,0,1.5-.5,2.7-1.4,3.7ZM96.5,18.1v-3h-11.9v4h3.9v13.7h4.1v-13.7h3.9v-.9ZM177.3,14.6h0c-3.3,0-6.2,1.8-7.9,4.5-.9,1.4-1.3,3.1-1.3,4.8s.5,3.4,1.3,4.8c1.6,2.7,4.6,4.5,7.9,4.5h0c5.1,0,9.2-4.2,9.2-9.3s-4.2-9.3-9.2-9.3ZM177.3,28.6h0c-2.5,0-4.7-2.2-4.7-4.7s2.2-4.7,4.7-4.7h0c2.5,0,4.7,2.1,4.7,4.7s-2.1,4.7-4.6,4.7ZM197,23.4c1.2-.9,1.5-2.1,1.5-3.6,0-2.3-1.5-4.7-5.2-4.7h-6v17.5h6.4c3.8,0,5.3-3.1,5.3-5.1,0-2-.7-3.5-2.1-4.2ZM191.8,19h1.2c0,0,.1,0,.2,0,.5.1,1,.6,1,1.3,0,.6-.3,1.2-1,1.4-.1,0-.2,0-.4,0h-1.1v-2.8ZM193.2,28.7c0,0-.2,0-.2,0h-1.2v-3.5h1.2c0,0,.2,0,.3,0,.9.2,1.4.9,1.4,1.7,0,.7-.5,1.6-1.4,1.8ZM208.7,14.6h0c-5.1,0-9.2,4.2-9.2,9.3s4.2,9.3,9.2,9.3h0c5.1,0,9.2-4.2,9.2-9.3s-4.1-9.2-9.2-9.3ZM208.8,28.7h0c-2.5,0-4.6-2.2-4.6-4.8s2.1-4.7,4.6-4.7,4.6,2.1,4.6,4.7-2,4.8-4.5,4.8ZM169.4,17.4l1.3-2.3h-5l-4.6,7.4h-6.3v3.8h4.1c-1.2,1.7-2.4,2.3-3.9,2.2-1,0-1.8-.2-2.6-.6-1.4-.8-2.2-2.4-2.2-4.4,0-2.5,2.2-4.5,4.8-4.5,1.5,0,3.6.6,4.8,2.6l2.4-3.7c-1.9-2.1-4.5-3.4-7.4-3.4-5.2,0-9.1,4.3-9.1,8.9,0,4.4,2.5,9.2,8.3,9.2h14.1v-4h-5.4l6.6-11.3ZM135.3,15.5l-1.1,1.8-8.3,13.1-2.9-4c.9-.3,1.7-.7,2.3-1.4,1-1,1.5-2.3,1.5-3.9s-.6-3.4-1.8-4.5c-1.1-.9-2.5-1.4-4.2-1.5-.2,0-.5,0-.7,0h-5.5v17.7h4.1v-5.4l1.3,1.8,2.3,3.2.3.4h5.2,0s1,0,1,0l2.9-4.6h4.6s0,3.7,0,3.7v.9s.9,0,.9,0h2.3s.9,0,.9,0v-.9s0-15.8,0-15.8v-.9s-4.7,0-4.7,0l-.3.4ZM121.9,22.7c-.3.2-.8.4-1.4.5-.5,0-1,.1-1.6.1h-.3v-4.3h.8c.4,0,.8,0,1.1,0,.7,0,1.2.2,1.5.5.3.2.6.6.6,1.5s-.4,1.4-.8,1.6ZM136.1,24.4h-2.5l2.5-4.3v4.3ZM59.4,15.1h-4v17.6h9v-4.1h-4.8v-3h4.8v-4.1h-4.8v-2.4h4.8v-4.1h-5Z"/>
    <path class="st0" d="M43,9.6c-.7-.9-1.7-2-2.5-2.8l-19,26.9s2,1.9,1.8,7.1c-.1,2.9-1.4,5.2-2.6,6.7,1,.1,2.1.2,3.2.2s.7,0,1,0c2.3-3.5,2.7-5.9,2.7-8,0-2.5-1.5-5.4-1.5-5.4l17-24.7ZM46.7,16.9c-.4-1.4-1-2.8-1.7-4l-14.8,21.4s1.6,2.4,1.3,6.2c-.2,2.8-1.5,5.2-2.5,6.8,1.8-.4,3.6-1,5.3-1.8.5-1.2,1.1-2.9,1.2-5,.2-3.1-.8-5.6-.8-5.6l12-17.8ZM47.6,21.4l-9.1,14.2s.6,1.1.4,4c0,1.4-.4,2.6-.8,3.4,5.9-4.3,9.7-11.3,9.7-19.2s0-1.7-.1-2.5ZM37.8,4.6C33.9,1.6,29.2,0,23.9,0,10.7,0,0,10.7,0,23.9s7.3,20.1,17.3,22.9c1.1-1.6,2.3-3.7,2.3-5.8,0-4.6-2.5-7.5-2.5-7.5L37.8,4.6Z"/>
  </g>
  <g>
    <path class="st0" d="M55.7,38.1l9.8,10.3v-9.6h1.6v13.6l-9.8-10.3v9.7h-1.6v-13.7Z"/>
    <path class="st0" d="M71.2,38.7h7v1.5h-5.4v3.6h5.2v1.5h-5.2v4.9h5.4v1.5h-7v-13Z"/>
    <path class="st0" d="M93.8,45.2v.5c0,.9-.1,1.7-.4,2.5-.3.8-.7,1.4-1.3,2-.6.6-1.2,1-2,1.3-.8.3-1.6.5-2.5.5s-1.7-.2-2.5-.5c-.8-.4-1.5-.9-2.1-1.5-.6-.6-1.1-1.4-1.4-2.2-.3-.8-.5-1.7-.5-2.6s.2-1.8.5-2.6c.3-.8.8-1.6,1.5-2.2.6-.6,1.3-1.1,2.2-1.5.8-.4,1.7-.5,2.6-.5s2,.2,2.9.7c.9.4,1.7,1.1,2.4,1.9l-1.1,1.1c-.5-.6-1.1-1.2-1.8-1.5-.7-.4-1.5-.6-2.3-.6s-1.4.1-2,.4c-.6.3-1.2.7-1.7,1.1-.5.5-.8,1.1-1.1,1.7-.3.6-.4,1.3-.4,2s.1,1.3.4,2c.3.6.6,1.2,1.1,1.7.5.5,1,.9,1.6,1.2.6.3,1.3.4,2,.4s1-.1,1.5-.3c.5-.2,1-.5,1.4-.8s.7-.8,1-1.2c.3-.5.4-1,.4-1.5h-3.4v-1.5h5.2Z"/>
    <path class="st0" d="M105.7,39c.8.4,1.6.8,2.2,1.5.6.6,1.1,1.4,1.5,2.2s.5,1.7.5,2.6-.2,1.8-.5,2.7c-.4.8-.8,1.6-1.5,2.2-.6.6-1.4,1.1-2.2,1.4-.8.3-1.7.5-2.6.5s-1.8-.2-2.6-.5c-.8-.3-1.6-.8-2.2-1.4-.6-.6-1.1-1.3-1.5-2.2-.4-.8-.5-1.7-.5-2.7s.2-1.8.5-2.6.9-1.6,1.5-2.2c.6-.6,1.4-1.1,2.2-1.5.8-.4,1.7-.5,2.6-.5s1.8.2,2.6.5ZM105,50.1c.6-.3,1.2-.6,1.7-1.1.5-.5.9-1,1.1-1.7.3-.6.4-1.3.4-2.1s-.1-1.4-.4-2c-.3-.6-.6-1.2-1.1-1.7-.5-.5-1-.9-1.7-1.1-.6-.3-1.3-.4-2.1-.4s-1.4.1-2.1.4c-.6.3-1.2.7-1.7,1.1-.5.5-.8,1.1-1.1,1.7-.3.6-.4,1.3-.4,2s.1,1.4.4,2.1c.3.6.6,1.2,1.1,1.7.5.5,1,.9,1.7,1.1.6.3,1.3.4,2,.4s1.4-.1,2-.4ZM105.4,35.3l-2.8,2.6-.8-.5,2.2-2.9,1.4.8Z"/>
    <path class="st0" d="M122.7,41.2c-.5-.4-1-.7-1.6-1-.6-.2-1.2-.3-1.8-.3s-1.4.1-2,.4c-.6.3-1.2.7-1.7,1.2-.5.5-.8,1.1-1.1,1.7-.3.6-.4,1.3-.4,2s.1,1.4.4,2c.3.6.6,1.2,1.1,1.7.5.5,1,.9,1.6,1.2.6.3,1.3.4,2,.4s1.3-.1,1.9-.3c.6-.2,1.1-.6,1.6-1v1.9c-.5.3-1,.5-1.7.7-.6.2-1.2.2-1.8.2-.9,0-1.8-.2-2.6-.5-.8-.3-1.6-.8-2.2-1.4-.6-.6-1.1-1.3-1.5-2.2-.4-.8-.5-1.7-.5-2.6s.2-1.8.5-2.7c.4-.8.9-1.6,1.5-2.2.6-.6,1.4-1.1,2.2-1.5.8-.3,1.7-.5,2.7-.5s1.2,0,1.7.2c.6.1,1.1.4,1.6.7v1.9Z"/>
    <path class="st0" d="M127.9,51.8h-1.6v-13h1.6v13Z"/>
    <path class="st0" d="M140.6,39c.8.4,1.6.8,2.2,1.5.6.6,1.1,1.4,1.5,2.2s.5,1.7.5,2.6-.2,1.8-.5,2.7c-.4.8-.8,1.6-1.5,2.2-.6.6-1.4,1.1-2.2,1.4-.8.3-1.7.5-2.6.5s-1.8-.2-2.6-.5c-.8-.3-1.6-.8-2.2-1.4-.6-.6-1.1-1.3-1.5-2.2-.4-.8-.5-1.7-.5-2.7s.2-1.8.5-2.6c.4-.8.9-1.6,1.5-2.2.6-.6,1.4-1.1,2.2-1.5.8-.4,1.7-.5,2.6-.5s1.8.2,2.6.5ZM140,50.1c.6-.3,1.2-.6,1.7-1.1.5-.5.9-1,1.1-1.7.3-.6.4-1.3.4-2.1s-.1-1.4-.4-2c-.3-.6-.6-1.2-1.1-1.7-.5-.5-1-.9-1.7-1.1-.6-.3-1.3-.4-2.1-.4s-1.4.1-2.1.4c-.6.3-1.2.7-1.7,1.1-.5.5-.8,1.1-1.1,1.7-.3.6-.4,1.3-.4,2s.1,1.4.4,2.1c.3.6.6,1.2,1.1,1.7.5.5,1,.9,1.7,1.1.6.3,1.3.4,2,.4s1.4-.1,2-.4Z"/>
    <path class="st0" d="M153.9,41.2c-.2-.4-.5-.7-.9-.9-.3-.2-.7-.3-1.2-.3s-1.1.2-1.5.5c-.4.3-.7.8-.7,1.3s.2.8.5,1.1c.3.3.8.5,1.3.7l.9.4c.5.2.9.4,1.3.6.4.2.7.5,1,.8.3.3.5.7.7,1.1.2.4.2.9.2,1.4s-.1,1.1-.3,1.6c-.2.5-.5.9-.9,1.3-.4.4-.8.7-1.3.8-.5.2-1,.3-1.6.3s-1,0-1.5-.3c-.5-.2-.9-.4-1.2-.8-.4-.3-.7-.7-.9-1.2-.2-.4-.4-.9-.4-1.4l1.6-.3c0,.7.2,1.3.7,1.8.5.5,1.1.7,1.8.7s1.3-.3,1.7-.8c.5-.5.7-1.1.7-1.8s-.2-1.2-.7-1.6c-.2-.2-.4-.3-.7-.5s-.6-.3-.9-.4l-.9-.4c-.4-.2-.8-.4-1.1-.6-.3-.2-.6-.4-.9-.7s-.5-.6-.6-.9c-.1-.3-.2-.7-.2-1.2s.1-1,.3-1.4c.2-.4.5-.8.9-1.1.4-.3.8-.5,1.2-.7.5-.2.9-.2,1.4-.2.7,0,1.4.2,2,.5.6.3,1,.8,1.4,1.5l-1.3.8Z"/>
  </g>
</svg>